<svg xmlns="http://www.w3.org/2000/svg" viewBox="0 0 128 128">
  <!-- 背景圆形 -->
  <circle cx="64" cy="64" r="60" fill="url(#gradient)" stroke="#fff" stroke-width="4"/>
  
  <!-- 渐变定义 -->
  <defs>
    <linearGradient id="gradient" x1="0%" y1="0%" x2="100%" y2="100%">
      <stop offset="0%" style="stop-color:#667eea;stop-opacity:1" />
      <stop offset="100%" style="stop-color:#764ba2;stop-opacity:1" />
    </linearGradient>
  </defs>
  
  <!-- 云朵图标 -->
  <g fill="#fff">
    <path d="M 40 70 C 30 70 22 62 22 52 C 22 42 30 34 40 34 C 42 24 51 16 62 16 C 74 16 84 26 84 38 C 94 38 102 46 102 56 C 102 66 94 74 84 74 L 40 74 Z" opacity="0.9"/>
  </g>
  
  <!-- 缓存符号 -->
  <g fill="#fff" transform="translate(64, 64)">
    <rect x="-20" y="-8" width="40" height="4" rx="2"/>
    <rect x="-20" y="-2" width="40" height="4" rx="2"/>
    <rect x="-20" y="4" width="40" height="4" rx="2"/>
  </g>
  
  <!-- CTW 文字 -->
  <text x="64" y="100" font-family="Arial, sans-serif" font-size="14" font-weight="bold" text-anchor="middle" fill="#fff">CTW</text>
</svg>